<svg width="20" height="18" viewBox="0 0 20 18" fill="none" xmlns="http://www.w3.org/2000/svg">
<mask id="path-1-inside-1_667_522" fill="white">
<path d="M19.8018 9L14.8516 17.3379H4.9502L0 9L4.9502 0.662109H14.8516L19.8018 9Z"/>
</mask>
<path d="M19.8018 9L21.7173 10.1373L22.3925 9L21.7173 7.86275L19.8018 9ZM14.8516 17.3379V19.5656H16.1197L16.7671 18.4751L14.8516 17.3379ZM4.9502 17.3379L3.03466 18.4751L3.68205 19.5656H4.9502V17.3379ZM0 9L-1.91554 7.86275L-2.59072 9L-1.91554 10.1373L0 9ZM4.9502 0.662109V-1.56559H3.68205L3.03466 -0.475143L4.9502 0.662109ZM14.8516 0.662109L16.7671 -0.475143L16.1197 -1.56559H14.8516V0.662109ZM19.8018 9L17.8862 7.86275L12.936 16.2006L14.8516 17.3379L16.7671 18.4751L21.7173 10.1373L19.8018 9ZM14.8516 17.3379V15.1102H4.9502V17.3379V19.5656H14.8516V17.3379ZM4.9502 17.3379L6.86573 16.2006L1.91554 7.86275L0 9L-1.91554 10.1373L3.03466 18.4751L4.9502 17.3379ZM0 9L1.91554 10.1373L6.86573 1.79936L4.9502 0.662109L3.03466 -0.475143L-1.91554 7.86275L0 9ZM4.9502 0.662109V2.8898H14.8516V0.662109V-1.56559H4.9502V0.662109ZM14.8516 0.662109L12.936 1.79936L17.8862 10.1373L19.8018 9L21.7173 7.86275L16.7671 -0.475143L14.8516 0.662109Z" fill="#D30000" mask="url(#path-1-inside-1_667_522)"/>
</svg>
