<svg width="98" height="17" viewBox="0 0 98 17" fill="none" xmlns="http://www.w3.org/2000/svg">
<path d="M8.19369 16.7614C6.55279 16.7614 5.14422 16.4056 3.968 15.6941C2.8063 14.968 1.92776 13.9878 1.33239 12.7535C0.737017 11.5192 0.439331 10.1542 0.439331 8.65851C0.439331 7.16282 0.737017 5.79782 1.33239 4.56351C1.92776 3.3292 2.8063 2.35628 3.968 1.64474C5.14422 0.918673 6.55279 0.555641 8.19369 0.555641C9.45704 0.555641 10.5752 0.802503 11.5481 1.29623C12.5356 1.78995 13.327 2.47245 13.9223 3.34373C14.5322 4.215 14.9243 5.20245 15.0986 6.30607H12.1362C12.0055 5.68165 11.7587 5.1371 11.3956 4.67242C11.0471 4.19322 10.597 3.82293 10.0452 3.56154C9.49335 3.30016 8.87619 3.16947 8.19369 3.16947C7.13364 3.16947 6.24784 3.41633 5.5363 3.91006C4.83928 4.38926 4.32377 5.04271 3.98978 5.87043C3.65579 6.69814 3.4888 7.6275 3.4888 8.65851C3.4888 9.68952 3.65579 10.6189 3.98978 11.4466C4.32377 12.2743 4.83928 12.935 5.5363 13.4288C6.24784 13.908 7.13364 14.1476 8.19369 14.1476C8.93428 14.1476 9.58047 13.9951 10.1323 13.6901C10.6986 13.3852 11.156 12.9713 11.5045 12.4486C11.8676 11.9113 12.1072 11.2941 12.2233 10.5971H15.1639C15.0187 11.7733 14.6484 12.8334 14.053 13.7773C13.4722 14.7066 12.6735 15.4399 11.657 15.9772C10.655 16.5 9.50061 16.7614 8.19369 16.7614ZM22.2917 16.7614C21.1155 16.7614 20.0917 16.5073 19.2204 15.999C18.3492 15.4908 17.6884 14.7865 17.2383 13.8862C16.7881 12.9859 16.563 11.9694 16.563 10.8367C16.563 9.70404 16.7881 8.68755 17.2383 7.78724C17.6884 6.88692 18.3492 6.18264 19.2204 5.67439C20.0917 5.16615 21.1155 4.91202 22.2917 4.91202C23.4679 4.91202 24.4917 5.16615 25.3629 5.67439C26.2342 6.18264 26.8949 6.88692 27.3451 7.78724C27.7953 8.68755 28.0203 9.70404 28.0203 10.8367C28.0203 11.9694 27.7953 12.9859 27.3451 13.8862C26.8949 14.7865 26.2342 15.4908 25.3629 15.999C24.4917 16.5073 23.4679 16.7614 22.2917 16.7614ZM22.2917 14.4743C22.9451 14.4743 23.4897 14.3291 23.9253 14.0386C24.3755 13.7337 24.7022 13.3126 24.9055 12.7753C25.1233 12.2235 25.2322 11.5773 25.2322 10.8367C25.2322 10.0961 25.1233 9.45718 24.9055 8.91989C24.7022 8.36809 24.3755 7.94697 23.9253 7.65654C23.4897 7.3516 22.9451 7.19912 22.2917 7.19912C21.6237 7.19912 21.0719 7.3516 20.6363 7.65654C20.2006 7.94697 19.8739 8.36809 19.6561 8.91989C19.4528 9.45718 19.3511 10.0961 19.3511 10.8367C19.3511 11.5773 19.4528 12.2235 19.6561 12.7753C19.8739 13.3126 20.2006 13.7337 20.6363 14.0386C21.0719 14.3291 21.6237 14.4743 22.2917 14.4743ZM34.1812 16.5C33.4842 16.5 32.9106 16.4201 32.4604 16.2604C32.0103 16.0861 31.6618 15.7885 31.4149 15.3673C31.168 14.9317 31.0446 14.3436 31.0446 13.603V7.28625H29.0625V5.17341H31.0446V1.6883H33.7674V5.17341H36.6426V7.28625H33.7674V13.3198C33.7674 13.6974 33.8472 13.9733 34.007 14.1476C34.1812 14.3073 34.4644 14.3872 34.8564 14.3872H36.6426V16.5H34.1812ZM41.9061 16.7614C40.6573 16.7614 39.6553 16.4637 38.9002 15.8683C38.1451 15.273 37.7676 14.4307 37.7676 13.3416C37.7676 12.6736 37.9273 12.1146 38.2468 11.6644C38.5662 11.1997 39.0382 10.8222 39.6626 10.5318C40.3015 10.2413 41.122 10.009 42.124 9.83474L45.413 9.24662V8.59317C45.413 8.0704 45.246 7.67833 44.912 7.41694C44.5926 7.15556 44.0698 7.02487 43.3437 7.02487C42.6612 7.02487 42.1022 7.17008 41.6665 7.46051C41.2454 7.75093 41.0203 8.19383 40.9913 8.7892H38.2903C38.3049 7.51133 38.7768 6.54567 39.7062 5.89221C40.65 5.23875 41.8553 4.91202 43.322 4.91202C44.9048 4.91202 46.0955 5.20971 46.8942 5.80508C47.6929 6.40045 48.0922 7.22817 48.0922 8.28822V16.5H45.5001V15.2149C45.0355 15.7667 44.5054 16.166 43.9101 16.4129C43.3292 16.6452 42.6612 16.7614 41.9061 16.7614ZM42.516 14.7357C43.0243 14.7357 43.4962 14.6413 43.9319 14.4525C44.3675 14.2637 44.7233 13.9733 44.9992 13.5812C45.2751 13.1891 45.413 12.6954 45.413 12.1001V11.0981L42.6249 11.6644C41.8989 11.8096 41.3761 11.9911 41.0566 12.209C40.7372 12.4268 40.5774 12.7753 40.5774 13.2545C40.5774 13.7192 40.7372 14.0822 41.0566 14.3436C41.3906 14.605 41.8771 14.7357 42.516 14.7357ZM50.3148 0.817024H53.2336V16.5H50.3148V0.817024ZM55.7562 5.17341H58.4136V6.7417C58.8202 6.17537 59.3212 5.73248 59.9165 5.41301C60.5264 5.07902 61.2162 4.91202 61.9858 4.91202C62.8571 4.91202 63.5904 5.09354 64.1858 5.45657C64.7957 5.8196 65.2531 6.34237 65.5581 7.02487C65.863 7.69285 66.0155 8.46974 66.0155 9.35553V16.5H63.2927V9.68226C63.2927 8.94168 63.1112 8.36083 62.7482 7.93971C62.3997 7.51859 61.8551 7.30803 61.1145 7.30803C60.7079 7.30803 60.3086 7.39516 59.9165 7.56942C59.5245 7.74367 59.1905 8.05588 58.9146 8.50604C58.6387 8.9562 58.5007 9.54431 58.5007 10.2704V16.5H55.7562V5.17341ZM72.9661 16.7614C71.8915 16.7614 70.9694 16.5073 70.1998 15.999C69.4447 15.4908 68.8711 14.7938 68.479 13.908C68.087 13.0076 67.8909 11.9839 67.8909 10.8367C67.8909 9.68952 68.087 8.67303 68.479 7.78724C68.8711 6.88692 69.4447 6.18264 70.1998 5.67439C70.9694 5.16615 71.8915 4.91202 72.9661 4.91202C73.7357 4.91202 74.411 5.05724 74.9918 5.34766C75.5727 5.63809 76.0591 6.05194 76.4512 6.58923V0.817024H79.1957V16.5H76.5601V14.9535C76.1535 15.5343 75.6526 15.9845 75.0572 16.304C74.4618 16.6089 73.7648 16.7614 72.9661 16.7614ZM73.5978 14.4743C74.2367 14.4743 74.774 14.3291 75.2097 14.0386C75.6453 13.7337 75.9648 13.3126 76.1681 12.7753C76.3859 12.2235 76.4948 11.5773 76.4948 10.8367C76.4948 10.0961 76.3859 9.45718 76.1681 8.91989C75.9648 8.36809 75.6453 7.94697 75.2097 7.65654C74.774 7.3516 74.2367 7.19912 73.5978 7.19912C72.9443 7.19912 72.3998 7.3516 71.9641 7.65654C71.5285 7.94697 71.2018 8.36809 70.984 8.91989C70.7807 9.45718 70.679 10.0961 70.679 10.8367C70.679 11.5773 70.7807 12.2235 70.984 12.7753C71.2018 13.3126 71.5285 13.7337 71.9641 14.0386C72.3998 14.3291 72.9443 14.4743 73.5978 14.4743ZM81.5153 5.17341H84.2381V16.5H81.5153V5.17341ZM81.5153 0.817024H84.2599V3.36551H81.5153V0.817024ZM91.6972 16.7614C90.55 16.7614 89.548 16.5073 88.6913 15.999C87.8491 15.4908 87.2029 14.7865 86.7527 13.8862C86.3171 12.9859 86.0992 11.9694 86.0992 10.8367C86.0992 9.70404 86.3171 8.68755 86.7527 7.78724C87.2029 6.88692 87.8491 6.18264 88.6913 5.67439C89.548 5.16615 90.55 4.91202 91.6972 4.91202C92.8444 4.91202 93.8391 5.16615 94.6813 5.67439C95.5235 6.18264 96.1697 6.90144 96.6199 7.8308C97.0701 8.74564 97.2951 9.82021 97.2951 11.0545V11.708H88.822C88.8946 12.3034 89.0543 12.8189 89.3012 13.2545C89.548 13.6756 89.8748 14.0096 90.2814 14.2565C90.688 14.4888 91.1599 14.605 91.6972 14.605C92.3507 14.605 92.9025 14.467 93.3526 14.1911C93.8028 13.9152 94.1513 13.5304 94.3982 13.0367H97.0773C96.6998 14.1839 96.0391 15.0914 95.0952 15.7594C94.1658 16.4274 93.0332 16.7614 91.6972 16.7614ZM94.5288 9.74761C94.3836 8.9199 94.0642 8.26644 93.5704 7.78724C93.0912 7.30803 92.4668 7.06843 91.6972 7.06843C90.913 7.06843 90.2814 7.30803 89.8022 7.78724C89.323 8.26644 89.0108 8.9199 88.8655 9.74761H94.5288Z" fill="white"/>
</svg>
