<svg width="125" height="34" viewBox="0 0 125 34" fill="none" xmlns="http://www.w3.org/2000/svg">
<mask id="path-1-inside-1_207_1657" fill="white">
<path d="M19.8018 17L14.8516 25.3379H4.9502L0 17L4.9502 8.66211H14.8516L19.8018 17Z"/>
</mask>
<path d="M19.8018 17L21.7173 18.1373L22.3925 17L21.7173 15.8627L19.8018 17ZM14.8516 25.3379V27.5656H16.1197L16.7671 26.4751L14.8516 25.3379ZM4.9502 25.3379L3.03466 26.4751L3.68205 27.5656H4.9502V25.3379ZM0 17L-1.91554 15.8627L-2.59072 17L-1.91554 18.1373L0 17ZM4.9502 8.66211V6.43441H3.68205L3.03466 7.52486L4.9502 8.66211ZM14.8516 8.66211L16.7671 7.52486L16.1197 6.43441H14.8516V8.66211ZM19.8018 17L17.8862 15.8627L12.936 24.2006L14.8516 25.3379L16.7671 26.4751L21.7173 18.1373L19.8018 17ZM14.8516 25.3379V23.1102H4.9502V25.3379V27.5656H14.8516V25.3379ZM4.9502 25.3379L6.86573 24.2006L1.91554 15.8627L0 17L-1.91554 18.1373L3.03466 26.4751L4.9502 25.3379ZM0 17L1.91554 18.1373L6.86573 9.79936L4.9502 8.66211L3.03466 7.52486L-1.91554 15.8627L0 17ZM4.9502 8.66211V10.8898H14.8516V8.66211V6.43441H4.9502V8.66211ZM14.8516 8.66211L12.936 9.79936L17.8862 18.1373L19.8018 17L21.7173 15.8627L16.7671 7.52486L14.8516 8.66211Z" fill="#D30000" mask="url(#path-1-inside-1_207_1657)"/>
<path d="M34.1937 25.7614C32.5528 25.7614 31.1442 25.4056 29.968 24.6941C28.8063 23.968 27.9278 22.9878 27.3324 21.7535C26.737 20.5192 26.4393 19.1542 26.4393 17.6585C26.4393 16.1628 26.737 14.7978 27.3324 13.5635C27.9278 12.3292 28.8063 11.3563 29.968 10.6447C31.1442 9.91867 32.5528 9.55564 34.1937 9.55564C35.457 9.55564 36.5752 9.8025 37.5481 10.2962C38.5356 10.7899 39.327 11.4724 39.9223 12.3437C40.5322 13.215 40.9243 14.2024 41.0986 15.3061H38.1362C38.0055 14.6817 37.7587 14.1371 37.3956 13.6724C37.0471 13.1932 36.597 12.8229 36.0452 12.5615C35.4933 12.3002 34.8762 12.1695 34.1937 12.1695C33.1336 12.1695 32.2478 12.4163 31.5363 12.9101C30.8393 13.3893 30.3238 14.0427 29.9898 14.8704C29.6558 15.6981 29.4888 16.6275 29.4888 17.6585C29.4888 18.6895 29.6558 19.6189 29.9898 20.4466C30.3238 21.2743 30.8393 21.935 31.5363 22.4288C32.2478 22.908 33.1336 23.1476 34.1937 23.1476C34.9343 23.1476 35.5805 22.9951 36.1323 22.6901C36.6986 22.3852 37.156 21.9713 37.5045 21.4486C37.8676 20.9113 38.1072 20.2941 38.2233 19.5971H41.1639C41.0187 20.7733 40.6484 21.8334 40.053 22.7773C39.4722 23.7066 38.6735 24.4399 37.657 24.9772C36.655 25.5 35.5006 25.7614 34.1937 25.7614ZM48.2917 25.7614C47.1155 25.7614 46.0917 25.5073 45.2204 24.999C44.3492 24.4908 43.6884 23.7865 43.2383 22.8862C42.7881 21.9859 42.563 20.9694 42.563 19.8367C42.563 18.704 42.7881 17.6876 43.2383 16.7872C43.6884 15.8869 44.3492 15.1826 45.2204 14.6744C46.0917 14.1661 47.1155 13.912 48.2917 13.912C49.4679 13.912 50.4917 14.1661 51.3629 14.6744C52.2342 15.1826 52.8949 15.8869 53.3451 16.7872C53.7953 17.6876 54.0203 18.704 54.0203 19.8367C54.0203 20.9694 53.7953 21.9859 53.3451 22.8862C52.8949 23.7865 52.2342 24.4908 51.3629 24.999C50.4917 25.5073 49.4679 25.7614 48.2917 25.7614ZM48.2917 23.4743C48.9451 23.4743 49.4897 23.3291 49.9253 23.0386C50.3755 22.7337 50.7022 22.3126 50.9055 21.7753C51.1233 21.2235 51.2322 20.5773 51.2322 19.8367C51.2322 19.0961 51.1233 18.4572 50.9055 17.9199C50.7022 17.3681 50.3755 16.947 49.9253 16.6565C49.4897 16.3516 48.9451 16.1991 48.2917 16.1991C47.6237 16.1991 47.0719 16.3516 46.6363 16.6565C46.2006 16.947 45.8739 17.3681 45.6561 17.9199C45.4528 18.4572 45.3511 19.0961 45.3511 19.8367C45.3511 20.5773 45.4528 21.2235 45.6561 21.7753C45.8739 22.3126 46.2006 22.7337 46.6363 23.0386C47.0719 23.3291 47.6237 23.4743 48.2917 23.4743ZM60.1812 25.5C59.4842 25.5 58.9106 25.4201 58.4604 25.2604C58.0103 25.0861 57.6618 24.7885 57.4149 24.3673C57.168 23.9317 57.0446 23.3436 57.0446 22.603V16.2863H55.0625V14.1734H57.0446V10.6883H59.7674V14.1734H62.6426V16.2863H59.7674V22.3198C59.7674 22.6974 59.8472 22.9733 60.007 23.1476C60.1812 23.3073 60.4644 23.3872 60.8564 23.3872H62.6426V25.5H60.1812ZM67.9061 25.7614C66.6573 25.7614 65.6553 25.4637 64.9002 24.8683C64.1451 24.273 63.7676 23.4307 63.7676 22.3416C63.7676 21.6736 63.9273 21.1146 64.2468 20.6644C64.5662 20.1997 65.0382 19.8222 65.6626 19.5318C66.3015 19.2413 67.122 19.009 68.124 18.8347L71.413 18.2466V17.5932C71.413 17.0704 71.246 16.6783 70.912 16.4169C70.5926 16.1556 70.0698 16.0249 69.3437 16.0249C68.6612 16.0249 68.1022 16.1701 67.6665 16.4605C67.2454 16.7509 67.0203 17.1938 66.9913 17.7892H64.2903C64.3049 16.5113 64.7768 15.5457 65.7062 14.8922C66.65 14.2388 67.8553 13.912 69.322 13.912C70.9048 13.912 72.0955 14.2097 72.8942 14.8051C73.6929 15.4005 74.0922 16.2282 74.0922 17.2882V25.5H71.5001V24.2149C71.0355 24.7667 70.5054 25.166 69.9101 25.4129C69.3292 25.6452 68.6612 25.7614 67.9061 25.7614ZM68.516 23.7357C69.0243 23.7357 69.4962 23.6413 69.9319 23.4525C70.3675 23.2637 70.7233 22.9733 70.9992 22.5812C71.2751 22.1891 71.413 21.6954 71.413 21.1001V20.0981L68.6249 20.6644C67.8989 20.8096 67.3761 20.9911 67.0566 21.209C66.7372 21.4268 66.5774 21.7753 66.5774 22.2545C66.5774 22.7192 66.7372 23.0822 67.0566 23.3436C67.3906 23.605 67.8771 23.7357 68.516 23.7357ZM76.3148 9.81702H79.2336V25.5H76.3148V9.81702ZM81.7562 14.1734H84.4136V15.7417C84.8202 15.1754 85.3212 14.7325 85.9165 14.413C86.5264 14.079 87.2162 13.912 87.9858 13.912C88.8571 13.912 89.5904 14.0935 90.1858 14.4566C90.7957 14.8196 91.2531 15.3424 91.5581 16.0249C91.863 16.6928 92.0155 17.4697 92.0155 18.3555V25.5H89.2927V18.6823C89.2927 17.9417 89.1112 17.3608 88.7482 16.9397C88.3997 16.5186 87.8551 16.308 87.1145 16.308C86.7079 16.308 86.3086 16.3952 85.9165 16.5694C85.5245 16.7437 85.1905 17.0559 84.9146 17.506C84.6387 17.9562 84.5007 18.5443 84.5007 19.2704V25.5H81.7562V14.1734ZM98.9661 25.7614C97.8915 25.7614 96.9694 25.5073 96.1998 24.999C95.4447 24.4908 94.8711 23.7938 94.479 22.908C94.087 22.0076 93.8909 20.9839 93.8909 19.8367C93.8909 18.6895 94.087 17.673 94.479 16.7872C94.8711 15.8869 95.4447 15.1826 96.1998 14.6744C96.9694 14.1661 97.8915 13.912 98.9661 13.912C99.7357 13.912 100.411 14.0572 100.992 14.3477C101.573 14.6381 102.059 15.0519 102.451 15.5892V9.81702H105.196V25.5H102.56V23.9535C102.154 24.5343 101.653 24.9845 101.057 25.304C100.462 25.6089 99.7648 25.7614 98.9661 25.7614ZM99.5978 23.4743C100.237 23.4743 100.774 23.3291 101.21 23.0386C101.645 22.7337 101.965 22.3126 102.168 21.7753C102.386 21.2235 102.495 20.5773 102.495 19.8367C102.495 19.0961 102.386 18.4572 102.168 17.9199C101.965 17.3681 101.645 16.947 101.21 16.6565C100.774 16.3516 100.237 16.1991 99.5978 16.1991C98.9443 16.1991 98.3998 16.3516 97.9641 16.6565C97.5285 16.947 97.2018 17.3681 96.984 17.9199C96.7807 18.4572 96.679 19.0961 96.679 19.8367C96.679 20.5773 96.7807 21.2235 96.984 21.7753C97.2018 22.3126 97.5285 22.7337 97.9641 23.0386C98.3998 23.3291 98.9443 23.4743 99.5978 23.4743ZM107.515 14.1734H110.238V25.5H107.515V14.1734ZM107.515 9.81702H110.26V12.3655H107.515V9.81702ZM117.697 25.7614C116.55 25.7614 115.548 25.5073 114.691 24.999C113.849 24.4908 113.203 23.7865 112.753 22.8862C112.317 21.9859 112.099 20.9694 112.099 19.8367C112.099 18.704 112.317 17.6876 112.753 16.7872C113.203 15.8869 113.849 15.1826 114.691 14.6744C115.548 14.1661 116.55 13.912 117.697 13.912C118.844 13.912 119.839 14.1661 120.681 14.6744C121.524 15.1826 122.17 15.9014 122.62 16.8308C123.07 17.7456 123.295 18.8202 123.295 20.0545V20.708H114.822C114.895 21.3034 115.054 21.8189 115.301 22.2545C115.548 22.6756 115.875 23.0096 116.281 23.2565C116.688 23.4888 117.16 23.605 117.697 23.605C118.351 23.605 118.902 23.467 119.353 23.1911C119.803 22.9152 120.151 22.5304 120.398 22.0367H123.077C122.7 23.1839 122.039 24.0914 121.095 24.7594C120.166 25.4274 119.033 25.7614 117.697 25.7614ZM120.529 18.7476C120.384 17.9199 120.064 17.2664 119.57 16.7872C119.091 16.308 118.467 16.0684 117.697 16.0684C116.913 16.0684 116.281 16.308 115.802 16.7872C115.323 17.2664 115.011 17.9199 114.866 18.7476H120.529Z" fill="white"/>
</svg>
