<svg width="142" height="37" viewBox="0 0 142 37" fill="none" xmlns="http://www.w3.org/2000/svg">
<mask id="path-1-inside-1_83_324" fill="white">
<path d="M23.3158 18.5L17.7328 27.9023H6.56775L0.984741 18.5L6.56775 9.09766H17.7328L23.3158 18.5Z"/>
</mask>
<path d="M23.3158 18.5L25.476 19.7827L26.2376 18.5L25.476 17.2173L23.3158 18.5ZM17.7328 27.9023V30.4146H19.1628L19.8929 29.185L17.7328 27.9023ZM6.56775 27.9023L4.40759 29.185L5.13771 30.4146H6.56775V27.9023ZM0.984741 18.5L-1.17542 17.2173L-1.93706 18.5L-1.17542 19.7827L0.984741 18.5ZM6.56775 9.09766V6.58538H5.13771L4.40759 7.81498L6.56775 9.09766ZM17.7328 9.09766L19.8929 7.81498L19.1628 6.58538H17.7328V9.09766ZM23.3158 18.5L21.1556 17.2173L15.5726 26.6197L17.7328 27.9023L19.8929 29.185L25.476 19.7827L23.3158 18.5ZM17.7328 27.9023V25.3901H6.56775V27.9023V30.4146H17.7328V27.9023ZM6.56775 27.9023L8.72791 26.6197L3.1449 17.2173L0.984741 18.5L-1.17542 19.7827L4.40759 29.185L6.56775 27.9023ZM0.984741 18.5L3.1449 19.7827L8.72791 10.3803L6.56775 9.09766L4.40759 7.81498L-1.17542 17.2173L0.984741 18.5ZM6.56775 9.09766V11.6099H17.7328V9.09766V6.58538H6.56775V9.09766ZM17.7328 9.09766L15.5726 10.3803L21.1556 19.7827L23.3158 18.5L25.476 17.2173L19.8929 7.81498L17.7328 9.09766Z" fill="#D30000" mask="url(#path-1-inside-1_83_324)"/>
<path d="M39.5463 28.2948C37.6958 28.2948 36.1073 27.8936 34.7808 27.0911C33.4707 26.2723 32.4799 25.1669 31.8085 23.7749C31.137 22.3829 30.8013 20.8435 30.8013 19.1568C30.8013 17.47 31.137 15.9306 31.8085 14.5387C32.4799 13.1467 33.4707 12.0495 34.7808 11.247C36.1073 10.4282 37.6958 10.0188 39.5463 10.0188C40.971 10.0188 42.232 10.2972 43.3292 10.854C44.4428 11.4108 45.3353 12.1805 46.0067 13.163C46.6946 14.1456 47.1367 15.2592 47.3332 16.5038H43.9925C43.8451 15.7996 43.5667 15.1855 43.1573 14.6615C42.7642 14.1211 42.2566 13.7035 41.6343 13.4087C41.012 13.1139 40.316 12.9665 39.5463 12.9665C38.3508 12.9665 37.3519 13.2449 36.5494 13.8017C35.7634 14.3421 35.182 15.0791 34.8053 16.0125C34.4287 16.946 34.2404 17.9941 34.2404 19.1568C34.2404 20.3195 34.4287 21.3676 34.8053 22.301C35.182 23.2345 35.7634 23.9796 36.5494 24.5364C37.3519 25.0768 38.3508 25.347 39.5463 25.347C40.3815 25.347 41.1102 25.1751 41.7325 24.8312C42.3712 24.4873 42.8871 24.0206 43.2801 23.431C43.6895 22.8251 43.9597 22.1291 44.0907 21.343H47.4069C47.2432 22.6695 46.8256 23.865 46.1541 24.9294C45.4991 25.9775 44.5984 26.8045 43.452 27.4105C42.3221 28 41.0202 28.2948 39.5463 28.2948ZM55.4453 28.2948C54.1188 28.2948 52.9643 28.0082 51.9817 27.435C50.9991 26.8618 50.254 26.0676 49.7463 25.0523C49.2386 24.0369 48.9848 22.8906 48.9848 21.6132C48.9848 20.3359 49.2386 19.1895 49.7463 18.1742C50.254 17.1589 50.9991 16.3646 51.9817 15.7914C52.9643 15.2183 54.1188 14.9317 55.4453 14.9317C56.7718 14.9317 57.9263 15.2183 58.9089 15.7914C59.8914 16.3646 60.6366 17.1589 61.1442 18.1742C61.6519 19.1895 61.9057 20.3359 61.9057 21.6132C61.9057 22.8906 61.6519 24.0369 61.1442 25.0523C60.6366 26.0676 59.8914 26.8618 58.9089 27.435C57.9263 28.0082 56.7718 28.2948 55.4453 28.2948ZM55.4453 25.7155C56.1822 25.7155 56.7963 25.5517 57.2876 25.2242C57.7953 24.8803 58.1637 24.4054 58.393 23.7995C58.6387 23.1772 58.7615 22.4484 58.7615 21.6132C58.7615 20.778 58.6387 20.0575 58.393 19.4516C58.1637 18.8293 57.7953 18.3543 57.2876 18.0268C56.7963 17.6829 56.1822 17.511 55.4453 17.511C54.692 17.511 54.0697 17.6829 53.5784 18.0268C53.0871 18.3543 52.7186 18.8293 52.473 19.4516C52.2437 20.0575 52.1291 20.778 52.1291 21.6132C52.1291 22.4484 52.2437 23.1772 52.473 23.7995C52.7186 24.4054 53.0871 24.8803 53.5784 25.2242C54.0697 25.5517 54.692 25.7155 55.4453 25.7155ZM68.8537 28C68.0676 28 67.4207 27.9099 66.9131 27.7298C66.4054 27.5333 66.0124 27.1976 65.734 26.7226C65.4556 26.2314 65.3164 25.5681 65.3164 24.7329V17.6092H63.081V15.2265H65.3164V11.2961H68.3869V15.2265H71.6294V17.6092H68.3869V24.4136C68.3869 24.8394 68.477 25.1505 68.6571 25.347C68.8537 25.5272 69.173 25.6172 69.6152 25.6172H71.6294V28H68.8537ZM77.5654 28.2948C76.157 28.2948 75.0271 27.9591 74.1755 27.2876C73.3239 26.6162 72.8982 25.6664 72.8982 24.4381C72.8982 23.6848 73.0783 23.0543 73.4386 22.5467C73.7989 22.0226 74.3311 21.5969 75.0353 21.2693C75.7558 20.9418 76.6811 20.6798 77.8111 20.4833L81.5203 19.82V19.0831C81.5203 18.4935 81.332 18.0514 80.9553 17.7566C80.595 17.4618 80.0055 17.3144 79.1867 17.3144C78.417 17.3144 77.7865 17.4782 77.2952 17.8057C76.8203 18.1333 76.5665 18.6327 76.5337 19.3042H73.4877C73.5041 17.863 74.0363 16.774 75.0844 16.0371C76.1489 15.3002 77.5081 14.9317 79.1621 14.9317C80.9471 14.9317 82.29 15.2674 83.1907 15.9388C84.0914 16.6103 84.5417 17.5437 84.5417 18.7392V28H81.6186V26.5507C81.0945 27.173 80.4968 27.6233 79.8253 27.9017C79.1703 28.1638 78.417 28.2948 77.5654 28.2948ZM78.2532 26.0103C78.8264 26.0103 79.3586 25.9038 79.8499 25.6909C80.3412 25.478 80.7424 25.1505 81.0536 24.7084C81.3647 24.2662 81.5203 23.7094 81.5203 23.038V21.908L78.376 22.5467C77.5572 22.7104 76.9677 22.9151 76.6074 23.1608C76.2471 23.4064 76.067 23.7995 76.067 24.3399C76.067 24.8639 76.2471 25.2733 76.6074 25.5681C76.9841 25.8629 77.5327 26.0103 78.2532 26.0103ZM86.8272 15.2265H89.8977V28H86.8272V15.2265ZM86.8272 10.3136H89.9223V13.1876H86.8272V10.3136ZM92.5371 15.2265H95.534V16.9951C95.9925 16.3564 96.5575 15.8569 97.2289 15.4967C97.9167 15.12 98.6946 14.9317 99.5625 14.9317C100.545 14.9317 101.372 15.1364 102.044 15.5458C102.731 15.9552 103.247 16.5448 103.591 17.3144C103.935 18.0678 104.107 18.9439 104.107 19.9428V28H101.036V20.3113C101.036 19.4761 100.832 18.8211 100.422 18.3462C100.029 17.8712 99.4152 17.6338 98.58 17.6338C98.1214 17.6338 97.6711 17.732 97.2289 17.9286C96.7868 18.1251 96.4101 18.4772 96.0989 18.9848C95.7878 19.4925 95.6322 20.1557 95.6322 20.9746V28H92.5371V15.2265ZM111.946 28.2948C110.734 28.2948 109.694 28.0082 108.826 27.435C107.974 26.8618 107.327 26.0758 106.885 25.0768C106.443 24.0615 106.222 22.907 106.222 21.6132C106.222 20.3195 106.443 19.1732 106.885 18.1742C107.327 17.1589 107.974 16.3646 108.826 15.7914C109.694 15.2183 110.734 14.9317 111.946 14.9317C112.813 14.9317 113.575 15.0954 114.23 15.423C114.885 15.7505 115.434 16.2172 115.876 16.8232V10.3136H118.971V28H115.999V26.2559C115.54 26.911 114.975 27.4186 114.304 27.7789C113.632 28.1228 112.846 28.2948 111.946 28.2948ZM112.658 25.7155C113.378 25.7155 113.984 25.5517 114.476 25.2242C114.967 24.8803 115.327 24.4054 115.557 23.7995C115.802 23.1772 115.925 22.4484 115.925 21.6132C115.925 20.778 115.802 20.0575 115.557 19.4516C115.327 18.8293 114.967 18.3543 114.476 18.0268C113.984 17.6829 113.378 17.511 112.658 17.511C111.921 17.511 111.307 17.6829 110.816 18.0268C110.324 18.3543 109.956 18.8293 109.71 19.4516C109.481 20.0575 109.366 20.778 109.366 21.6132C109.366 22.4484 109.481 23.1772 109.71 23.7995C109.956 24.4054 110.324 24.8803 110.816 25.2242C111.307 25.5517 111.921 25.7155 112.658 25.7155ZM121.587 15.2265H124.657V28H121.587V15.2265ZM121.587 10.3136H124.682V13.1876H121.587V10.3136ZM133.069 28.2948C131.776 28.2948 130.646 28.0082 129.68 27.435C128.73 26.8618 128.001 26.0676 127.493 25.0523C127.002 24.0369 126.756 22.8906 126.756 21.6132C126.756 20.3359 127.002 19.1895 127.493 18.1742C128.001 17.1589 128.73 16.3646 129.68 15.7914C130.646 15.2183 131.776 14.9317 133.069 14.9317C134.363 14.9317 135.485 15.2183 136.435 15.7914C137.385 16.3646 138.113 17.1752 138.621 18.2233C139.129 19.255 139.383 20.4669 139.383 21.8589V22.5958H129.827C129.909 23.2672 130.089 23.8486 130.367 24.3399C130.646 24.8148 131.014 25.1915 131.473 25.4699C131.931 25.7319 132.464 25.8629 133.069 25.8629C133.806 25.8629 134.429 25.7073 134.936 25.3962C135.444 25.085 135.837 24.651 136.115 24.0942H139.137C138.711 25.388 137.966 26.4115 136.902 27.1648C135.853 27.9181 134.576 28.2948 133.069 28.2948ZM136.263 20.385C136.099 19.4516 135.739 18.7146 135.182 18.1742C134.642 17.6338 133.937 17.3636 133.069 17.3636C132.185 17.3636 131.473 17.6338 130.932 18.1742C130.392 18.7146 130.04 19.4516 129.876 20.385H136.263Z" fill="#040309"/>
</svg>
