<svg width="20" height="20" viewBox="0 0 20 20" fill="none" xmlns="http://www.w3.org/2000/svg">
<mask id="mask0_6_64" style="mask-type:alpha" maskUnits="userSpaceOnUse" x="0" y="0" width="20" height="20">
<rect width="20" height="20" fill="#D9D9D9"/>
</mask>
<g mask="url(#mask0_6_64)">
<path d="M5.08169 14.2227C5.83169 13.711 6.61377 13.3307 7.42794 13.0817C8.24197 12.8328 9.09933 12.7083 10 12.7083C10.9007 12.7083 11.7581 12.8328 12.5721 13.0817C13.3863 13.3307 14.1684 13.711 14.9184 14.2227C15.4364 13.6533 15.8295 13.008 16.0977 12.2869C16.3659 11.5658 16.5 10.8035 16.5 9.99999C16.5 8.19902 15.8665 6.66541 14.5994 5.39916C13.3323 4.13304 11.7976 3.49999 9.99523 3.49999C8.19287 3.49999 6.65974 4.13304 5.39585 5.39916C4.13196 6.66541 3.50002 8.19902 3.50002 9.99999C3.50002 10.8035 3.63412 11.5658 3.90231 12.2869C4.17051 13.008 4.56363 13.6533 5.08169 14.2227ZM10.0002 11.2917C9.22551 11.2917 8.56655 11.0201 8.02335 10.4771C7.48002 9.93388 7.20835 9.27492 7.20835 8.5002C7.20835 7.72548 7.47988 7.06652 8.02294 6.52332C8.56613 5.97999 9.22509 5.70832 9.99981 5.70832C10.7745 5.70832 11.4335 5.97985 11.9767 6.52291C12.52 7.0661 12.7917 7.72506 12.7917 8.49978C12.7917 9.2745 12.5202 9.93346 11.9771 10.4767C11.4339 11.02 10.775 11.2917 10.0002 11.2917ZM10.0059 17.5833C8.95821 17.5833 7.97363 17.387 7.0521 16.9944C6.13058 16.6017 5.32398 16.0595 4.63231 15.3677C3.94051 14.676 3.39828 13.8697 3.00565 12.9487C2.61301 12.0279 2.41669 11.0418 2.41669 9.99041C2.41669 8.93916 2.61301 7.95624 3.00565 7.04166C3.39828 6.12707 3.94051 5.32395 4.63231 4.63228C5.32398 3.94048 6.1303 3.39825 7.05127 3.00562C7.9721 2.61298 8.95821 2.41666 10.0096 2.41666C11.0609 2.41666 12.0438 2.61298 12.9584 3.00562C13.8729 3.39825 14.6761 3.94048 15.3677 4.63228C16.0595 5.32395 16.6018 6.1286 16.9944 7.04624C17.387 7.96402 17.5834 8.94666 17.5834 9.99416C17.5834 11.0418 17.387 12.0264 16.9944 12.9479C16.6018 13.8694 16.0595 14.676 15.3677 15.3677C14.6761 16.0595 13.8714 16.6017 12.9538 16.9944C12.036 17.387 11.0534 17.5833 10.0059 17.5833ZM10 16.5C10.7382 16.5 11.4634 16.3721 12.1754 16.1162C12.8875 15.8603 13.5352 15.4941 14.1186 15.0177C13.5213 14.6266 12.8747 14.3245 12.1788 14.1114C11.4827 13.8983 10.7564 13.7917 10 13.7917C9.24363 13.7917 8.51259 13.8934 7.8069 14.0969C7.1012 14.3005 6.4594 14.6074 5.88148 15.0177C6.46481 15.4941 7.11252 15.8603 7.8246 16.1162C8.53669 16.3721 9.26183 16.5 10 16.5ZM10 10.2083C10.4702 10.2083 10.8724 10.0411 11.2067 9.70666C11.5411 9.37235 11.7084 8.97013 11.7084 8.49999C11.7084 8.02985 11.5411 7.62763 11.2067 7.29332C10.8724 6.95888 10.4702 6.79166 10 6.79166C9.52988 6.79166 9.12766 6.95888 8.79335 7.29332C8.45891 7.62763 8.29169 8.02985 8.29169 8.49999C8.29169 8.97013 8.45891 9.37235 8.79335 9.70666C9.12766 10.0411 9.52988 10.2083 10 10.2083Z" fill="white"/>
</g>
</svg>
