<svg width="20" height="20" viewBox="0 0 20 20" fill="none" xmlns="http://www.w3.org/2000/svg">
<mask id="mask0_6_61" style="mask-type:alpha" maskUnits="userSpaceOnUse" x="0" y="0" width="20" height="20">
<rect width="20" height="20" fill="#D9D9D9"/>
</mask>
<g mask="url(#mask0_6_61)">
<path d="M4.50002 15.5V4.49999V7.52561V7.33978V15.5ZM6.20835 10.5417H10.9965C11.0213 10.3579 11.0511 10.1758 11.0859 9.9952C11.1204 9.81464 11.1805 9.63568 11.2661 9.45832H6.20835V10.5417ZM6.20835 13.7917H10.3573C10.5176 13.6751 10.675 13.5574 10.8294 13.4383C10.9837 13.3192 11.1458 13.2121 11.3156 13.1171C11.2676 13.0518 11.2203 12.9858 11.1738 12.9192C11.1274 12.8524 11.0818 12.7821 11.0369 12.7083H6.20835V13.7917ZM6.20835 7.29166H13.7917V6.20832H6.20835V7.29166ZM4.75648 16.5833C4.38134 16.5833 4.06426 16.4538 3.80523 16.1948C3.5462 15.9358 3.41669 15.6187 3.41669 15.2435V4.75645C3.41669 4.38131 3.5462 4.06423 3.80523 3.8052C4.06426 3.54617 4.38134 3.41666 4.75648 3.41666H15.2436C15.6187 3.41666 15.9358 3.54617 16.1948 3.8052C16.4538 4.06423 16.5834 4.38131 16.5834 4.75645V7.94874C16.4124 7.84721 16.2379 7.76145 16.06 7.69145C15.8822 7.62145 15.6956 7.56617 15.5 7.52561V4.75645C15.5 4.69228 15.4733 4.63353 15.4198 4.5802C15.3665 4.52673 15.3077 4.49999 15.2436 4.49999H4.75648C4.69231 4.49999 4.63356 4.52673 4.58023 4.5802C4.52676 4.63353 4.50002 4.69228 4.50002 4.75645V15.2435C4.50002 15.3077 4.52676 15.3664 4.58023 15.4198C4.63356 15.4733 4.69231 15.5 4.75648 15.5H9.50481C9.49634 15.5374 9.49342 15.5724 9.49606 15.6052C9.4987 15.638 9.50002 15.6708 9.50002 15.7035V16.5833H4.75648ZM14.4567 12.5833C13.9621 12.5833 13.539 12.4092 13.1875 12.0608C12.836 11.7124 12.6602 11.2908 12.6602 10.7962C12.6602 10.3017 12.8345 9.87867 13.1829 9.52728C13.5313 9.17575 13.9527 8.99999 14.4473 8.99999C14.9419 8.99999 15.3649 9.17416 15.7163 9.52249C16.0678 9.87082 16.2436 10.2923 16.2436 10.7869C16.2436 11.2814 16.0694 11.7045 15.7211 12.056C15.3727 12.4076 14.9513 12.5833 14.4567 12.5833ZM11.1602 16.5833V15.6875C11.1602 15.571 11.1773 15.4658 11.2115 15.3719C11.2458 15.2778 11.2971 15.1902 11.3654 15.1089C11.7938 14.7394 12.2708 14.4621 12.7965 14.2773C13.3222 14.0924 13.874 14 14.4519 14C15.0193 14 15.5657 14.0924 16.0913 14.2773C16.617 14.4621 17.0994 14.7394 17.5386 15.1089C17.6069 15.1902 17.6581 15.2778 17.6923 15.3719C17.7265 15.4658 17.7436 15.571 17.7436 15.6875V16.5833H11.1602Z" fill="white"/>
</g>
</svg>
