<svg width="20" height="20" viewBox="0 0 20 20" fill="none" xmlns="http://www.w3.org/2000/svg">
<path d="M11.4583 14.375H15.2083V10.625H13.9583V13.125H11.4583V14.375ZM3.95832 10.2083H5.20832V7.70832H7.70832V6.45832H3.95832V10.2083ZM3.17311 16.6667C2.75214 16.6667 2.39582 16.5208 2.10416 16.2292C1.81249 15.9375 1.66666 15.5812 1.66666 15.1602V5.67311C1.66666 5.25214 1.81249 4.89582 2.10416 4.60416C2.39582 4.31249 2.75214 4.16666 3.17311 4.16666H15.9935C16.4145 4.16666 16.7708 4.31249 17.0625 4.60416C17.3542 4.89582 17.5 5.25214 17.5 5.67311V15.1602C17.5 15.5812 17.3542 15.9375 17.0625 16.2292C16.7708 16.5208 16.4145 16.6667 15.9935 16.6667H3.17311ZM3.17311 15.4167H15.9935C16.0577 15.4167 16.1164 15.3899 16.1698 15.3364C16.2233 15.2831 16.25 15.2244 16.25 15.1602V5.67311C16.25 5.60895 16.2233 5.5502 16.1698 5.49686C16.1164 5.44339 16.0577 5.41666 15.9935 5.41666H3.17311C3.10895 5.41666 3.0502 5.44339 2.99686 5.49686C2.94339 5.5502 2.91666 5.60895 2.91666 5.67311V15.1602C2.91666 15.2244 2.94339 15.2831 2.99686 15.3364C3.0502 15.3899 3.10895 15.4167 3.17311 15.4167Z" fill="white"/>
</svg>
