<svg width="20" height="20" viewBox="0 0 20 20" fill="none" xmlns="http://www.w3.org/2000/svg">
<mask id="mask0_426_2762" style="mask-type:alpha" maskUnits="userSpaceOnUse" x="0" y="0" width="20" height="20">
<rect width="20" height="20" fill="#D9D9D9"/>
</mask>
<g mask="url(#mask0_426_2762)">
<path d="M12.7834 17.5656C12.6413 17.7077 12.4776 17.8164 12.2923 17.8918C12.1069 17.9671 11.9165 18.0048 11.7211 18.0048C11.5255 18.0048 11.3343 17.9671 11.1473 17.8918C10.9604 17.8164 10.7959 17.7077 10.6538 17.5656L9.55107 16.471C9.40899 16.3289 9.30378 16.1709 9.23544 15.9968C9.16711 15.8227 9.12864 15.6463 9.12003 15.4679C9.11142 15.2895 9.13836 15.1111 9.20086 14.9327C9.26336 14.7542 9.35447 14.5897 9.47419 14.4391L9.64732 14.2323L2.85565 4.52392L5.83315 1.54642L16.2529 11.9664C16.395 12.1085 16.5038 12.2722 16.5792 12.4575C16.6545 12.6429 16.6921 12.8333 16.6921 13.0287C16.6921 13.2243 16.6545 13.4155 16.5792 13.6025C16.5038 13.7894 16.395 13.9539 16.2529 14.096L12.7834 17.5656ZM10.5302 13.3414L13.2129 10.6875L5.83315 3.30767L4.47732 4.6635L10.5302 13.3414ZM11.5527 16.6748C11.6061 16.7228 11.6675 16.7468 11.7369 16.7468C11.8065 16.7468 11.8653 16.7228 11.9134 16.6748L15.3621 13.226C15.4102 13.1779 15.4342 13.1191 15.4342 13.0495C15.4342 12.9801 15.4102 12.9187 15.3621 12.8654L14.0832 11.5577L10.4292 15.2114C10.3759 15.2649 10.3492 15.3277 10.3492 15.3998C10.3492 15.472 10.3759 15.5321 10.4292 15.5802L11.5527 16.6748Z" fill="white"/>
</g>
</svg>
