<svg width="20" height="20" viewBox="0 0 20 20" fill="none" xmlns="http://www.w3.org/2000/svg">
<mask id="mask0_405_2219" style="mask-type:alpha" maskUnits="userSpaceOnUse" x="0" y="0" width="20" height="20">
<rect width="20" height="20" fill="#D9D9D9"/>
</mask>
<g mask="url(#mask0_405_2219)">
<path d="M4.99999 17.9167C4.41777 17.9167 3.92499 17.715 3.52166 17.3117C3.11832 16.9083 2.91666 16.4156 2.91666 15.8333V13.4296H5.41666V2.08334H17.0833V15.8333C17.0833 16.4156 16.8817 16.9083 16.4783 17.3117C16.075 17.715 15.5822 17.9167 15 17.9167H4.99999ZM15 16.6667C15.2361 16.6667 15.434 16.5868 15.5937 16.4271C15.7535 16.2674 15.8333 16.0695 15.8333 15.8333V3.33334H6.66666V13.4296H14.1667V15.8333C14.1667 16.0695 14.2465 16.2674 14.4062 16.4271C14.566 16.5868 14.7639 16.6667 15 16.6667ZM7.6602 7.24355V5.99355H14.8398V7.24355H7.6602ZM7.6602 9.64751V8.39751H14.8398V9.64751H7.6602ZM4.99999 16.6667H12.9167V14.6794H4.16666V15.8333C4.16666 16.0695 4.24652 16.2674 4.40624 16.4271C4.56596 16.5868 4.76388 16.6667 4.99999 16.6667ZM4.99999 16.6667H4.16666H12.9167H4.99999Z" fill="white"/>
</g>
</svg>
