<svg width="20" height="20" viewBox="0 0 20 20" fill="none" xmlns="http://www.w3.org/2000/svg">
<mask id="mask0_6_58" style="mask-type:alpha" maskUnits="userSpaceOnUse" x="0" y="0" width="20" height="20">
<rect width="20" height="20" fill="#D9D9D9"/>
</mask>
<g mask="url(#mask0_6_58)">
<path d="M2.20834 4.79168V1.20834H5.79168V2.29168H3.29168V4.79168H2.20834ZM16.7083 4.79168V2.29168H14.2083V1.20834H17.7917V4.79168H16.7083ZM2.20834 18.7917V15.2083H3.29168V17.7083H5.79168V18.7917H2.20834ZM14.2083 18.7917V17.7083H16.7083V15.2083H17.7917V18.7917H14.2083ZM6.29168 14.4519C6.29168 14.5161 6.31841 14.5748 6.37189 14.6281C6.42522 14.6816 6.48397 14.7083 6.54814 14.7083H13.4519C13.5161 14.7083 13.5748 14.6816 13.6281 14.6281C13.6816 14.5748 13.7083 14.5161 13.7083 14.4519V5.54814C13.7083 5.48397 13.6816 5.42522 13.6281 5.37188C13.5748 5.31841 13.5161 5.29168 13.4519 5.29168H6.54814C6.48397 5.29168 6.42522 5.31841 6.37189 5.37188C6.31841 5.42522 6.29168 5.48397 6.29168 5.54814V14.4519ZM6.48564 15.7917C6.10633 15.7917 5.79862 15.6597 5.56251 15.3958C5.3264 15.132 5.20834 14.8173 5.20834 14.4519V5.54814C5.20834 5.18272 5.3264 4.86807 5.56251 4.60418C5.79862 4.34029 6.10633 4.20834 6.48564 4.20834H13.5144C13.8798 4.20834 14.184 4.34029 14.4271 4.60418C14.6701 4.86807 14.7917 5.18272 14.7917 5.54814V14.4519C14.7917 14.8173 14.6701 15.132 14.4271 15.3958C14.184 15.6597 13.8798 15.7917 13.5144 15.7917H6.48564ZM8.20834 8.29168H11.7917V7.20834H8.20834V8.29168ZM8.20834 10.5417H11.7917V9.45834H8.20834V10.5417ZM8.20834 12.7917H11.7917V11.7083H8.20834V12.7917ZM6.29168 14.4519V5.29168V14.7083V14.4519Z" fill="white"/>
</g>
</svg>
