<svg width="20" height="20" viewBox="0 0 20 20" fill="none" xmlns="http://www.w3.org/2000/svg">
<mask id="mask0_102_521" style="mask-type:alpha" maskUnits="userSpaceOnUse" x="0" y="0" width="20" height="20">
<rect width="20" height="20" fill="#D9D9D9"/>
</mask>
<g mask="url(#mask0_102_521)">
<path d="M9.04168 13.516L13.4536 9.08333L12.5833 8.21312L9.04168 11.7469L7.27084 9.98396L6.3798 10.875L9.04168 13.516ZM3.5898 16.25C3.16883 16.25 2.81251 16.1042 2.52084 15.8125C2.22918 15.5208 2.08334 15.1645 2.08334 14.7435V5.25646C2.08334 4.83549 2.22918 4.47917 2.52084 4.1875C2.81251 3.89583 3.16883 3.75 3.5898 3.75H8.16501L9.83168 5.41667H16.4102C16.8312 5.41667 17.1875 5.5625 17.4792 5.85417C17.7708 6.14583 17.9167 6.50215 17.9167 6.92313V14.7435C17.9167 15.1645 17.7708 15.5208 17.4792 15.8125C17.1875 16.1042 16.8312 16.25 16.4102 16.25H3.5898ZM3.5898 15H16.4102C16.4851 15 16.5465 14.976 16.5946 14.9279C16.6426 14.8799 16.6667 14.8184 16.6667 14.7435V6.92313C16.6667 6.84826 16.6426 6.78681 16.5946 6.73875C16.5465 6.69069 16.4851 6.66667 16.4102 6.66667H9.32043L7.65376 5H3.5898C3.51494 5 3.45348 5.02403 3.40543 5.07208C3.35737 5.12014 3.33334 5.1816 3.33334 5.25646V14.7435C3.33334 14.8184 3.35737 14.8799 3.40543 14.9279C3.45348 14.976 3.51494 15 3.5898 15Z" fill="white"/>
</g>
</svg>
