<svg width="20" height="20" viewBox="0 0 20 20" fill="none" xmlns="http://www.w3.org/2000/svg">
<mask id="mask0_22_642" style="mask-type:alpha" maskUnits="userSpaceOnUse" x="0" y="0" width="20" height="20">
<rect width="20" height="20" fill="#D9D9D9"/>
</mask>
<g mask="url(#mask0_22_642)">
<path d="M16.925 16.4007L14.2924 13.768H7.024C6.66204 13.768 6.35216 13.6391 6.09437 13.3813C5.83657 13.1236 5.70767 12.8137 5.70767 12.4517V11.9939H13.806C14.1757 11.9939 14.4923 11.8622 14.7557 11.5989C15.0191 11.3355 15.1508 11.0188 15.1508 10.6489V5.49821H15.6087C15.9706 5.49821 16.2805 5.62711 16.5383 5.8849C16.7961 6.1427 16.925 6.45258 16.925 6.81454V16.4007ZM4.19102 10.443L5.24415 9.38991H12.318C12.3847 9.38991 12.4395 9.36845 12.4824 9.32555C12.5253 9.28265 12.5467 9.22777 12.5467 9.16094V4.23917C12.5467 4.17233 12.5253 4.11746 12.4824 4.07456C12.4395 4.03165 12.3847 4.0102 12.318 4.0102H4.41998C4.35327 4.0102 4.2984 4.03165 4.25537 4.07456C4.21247 4.11746 4.19102 4.17233 4.19102 4.23917V10.443ZM3.07501 13.1386V4.23917C3.07501 3.86927 3.2067 3.55264 3.47008 3.28926C3.73346 3.02588 4.05009 2.8942 4.41998 2.8942H12.318C12.6877 2.8942 13.0043 3.02588 13.2677 3.28926C13.5311 3.55264 13.6627 3.86927 13.6627 4.23917V9.16094C13.6627 9.53083 13.5311 9.84747 13.2677 10.1108C13.0043 10.3742 12.6877 10.5059 12.318 10.5059H5.70767L3.07501 13.1386Z" fill="white"/>
</g>
</svg>
