<svg width="20" height="20" viewBox="0 0 20 20" fill="none" xmlns="http://www.w3.org/2000/svg">
<mask id="mask0_6_85" style="mask-type:alpha" maskUnits="userSpaceOnUse" x="0" y="0" width="20" height="20">
<rect width="20" height="20" fill="#D9D9D9"/>
</mask>
<g mask="url(#mask0_6_85)">
<path d="M4.75645 16.5833C4.38131 16.5833 4.06423 16.4538 3.8052 16.1948C3.54617 15.9358 3.41666 15.6187 3.41666 15.2435V12H4.49999V15.2435C4.49999 15.3077 4.52673 15.3664 4.5802 15.4198C4.63353 15.4733 4.69228 15.5 4.75645 15.5H7.99999V16.5833H4.75645ZM15.2435 16.5833H12V15.5H15.2435C15.3077 15.5 15.3664 15.4733 15.4198 15.4198C15.4733 15.3664 15.5 15.3077 15.5 15.2435V12H16.5833V15.2435C16.5833 15.6187 16.4538 15.9358 16.1948 16.1948C15.9358 16.4538 15.6187 16.5833 15.2435 16.5833ZM3.41666 4.75645C3.41666 4.38131 3.54617 4.06423 3.8052 3.8052C4.06423 3.54617 4.38131 3.41666 4.75645 3.41666H7.99999V4.49999H4.75645C4.69228 4.49999 4.63353 4.52673 4.5802 4.5802C4.52673 4.63353 4.49999 4.69228 4.49999 4.75645V7.99999H3.41666V4.75645ZM16.5833 4.75645V7.99999H15.5V4.75645C15.5 4.69228 15.4733 4.63353 15.4198 4.5802C15.3664 4.52673 15.3077 4.49999 15.2435 4.49999H12V3.41666H15.2435C15.6187 3.41666 15.9358 3.54617 16.1948 3.8052C16.4538 4.06423 16.5833 4.38131 16.5833 4.75645ZM10.0175 14.1714C10.2269 14.1714 10.4033 14.098 10.5464 13.951C10.6896 13.8041 10.7612 13.6238 10.7612 13.4102C10.7612 13.1966 10.6892 13.0217 10.545 12.8854C10.4008 12.7492 10.224 12.681 10.0146 12.681C9.80513 12.681 9.62881 12.7492 9.48561 12.8854C9.34242 13.0217 9.27082 13.1966 9.27082 13.4102C9.27082 13.6238 9.34291 13.8041 9.48707 13.951C9.63124 14.098 9.80805 14.1714 10.0175 14.1714ZM9.50957 11.5335H10.5239C10.5346 11.1202 10.5795 10.8286 10.6585 10.6587C10.7377 10.4887 10.9471 10.2408 11.2869 9.91499C11.6714 9.5443 11.9436 9.21235 12.1033 8.91916C12.263 8.62582 12.3429 8.31464 12.3429 7.98561C12.3429 7.35839 12.1301 6.84207 11.7044 6.43666C11.2785 6.03124 10.7211 5.82853 10.0321 5.82853C9.52346 5.82853 9.05311 5.97728 8.62103 6.27478C8.18881 6.57242 7.87284 6.96853 7.67311 7.46311L8.5977 7.86374C8.73561 7.53582 8.93006 7.27305 9.18103 7.07541C9.43214 6.87763 9.712 6.77874 10.0206 6.77874C10.3914 6.77874 10.7104 6.89846 10.9775 7.13791C11.2446 7.37721 11.3781 7.65812 11.3781 7.98062C11.3781 8.19339 11.3135 8.3895 11.1844 8.56895C11.0551 8.74839 10.7917 9.04221 10.3942 9.45041C10.0128 9.84777 9.76999 10.1573 9.66582 10.3789C9.56166 10.6006 9.50957 10.9855 9.50957 11.5335Z" fill="white" stroke="white" stroke-width="0.2"/>
</g>
</svg>
