<svg width="20" height="20" viewBox="0 0 20 20" fill="none" xmlns="http://www.w3.org/2000/svg">
<mask id="mask0_6_88" style="mask-type:alpha" maskUnits="userSpaceOnUse" x="0" y="0" width="20" height="20">
<rect width="20" height="20" fill="#D9D9D9"/>
</mask>
<g mask="url(#mask0_6_88)">
<path d="M4.4231 17.9167C4.00755 17.9167 3.65255 17.7695 3.3581 17.4752C3.0638 17.1808 2.91665 16.8258 2.91665 16.4102V7.07855C2.67206 6.95244 2.47199 6.7732 2.31644 6.54084C2.16102 6.30848 2.08331 6.04057 2.08331 5.73709V3.5898C2.08331 3.17425 2.23047 2.81925 2.52477 2.5248C2.81922 2.2305 3.17422 2.08334 3.58977 2.08334H16.4102C16.8257 2.08334 17.1807 2.2305 17.4752 2.5248C17.7695 2.81925 17.9166 3.17425 17.9166 3.5898V5.73709C17.9166 6.04057 17.8389 6.30848 17.6835 6.54084C17.528 6.7732 17.3279 6.95244 17.0833 7.07855V16.4102C17.0833 16.8258 16.9362 17.1808 16.6419 17.4752C16.3474 17.7695 15.9924 17.9167 15.5769 17.9167H4.4231ZM4.16665 7.24355V16.3702C4.16665 16.4556 4.19734 16.5264 4.25873 16.5825C4.32026 16.6386 4.39644 16.6667 4.48727 16.6667H15.5769C15.6517 16.6667 15.7132 16.6426 15.7612 16.5946C15.8093 16.5465 15.8333 16.4851 15.8333 16.4102V7.24355H4.16665ZM3.58977 5.99355H16.4102C16.4851 5.99355 16.5465 5.96952 16.5946 5.92147C16.6426 5.87341 16.6666 5.81195 16.6666 5.73709V3.5898C16.6666 3.51494 16.6426 3.45348 16.5946 3.40543C16.5465 3.35737 16.4851 3.33334 16.4102 3.33334H3.58977C3.51491 3.33334 3.45345 3.35737 3.4054 3.40543C3.35734 3.45348 3.33331 3.51494 3.33331 3.5898V5.73709C3.33331 5.81195 3.35734 5.87341 3.4054 5.92147C3.45345 5.96952 3.51491 5.99355 3.58977 5.99355ZM7.66019 11.194H12.3398V10H7.66019V11.194Z" fill="white"/>
</g>
</svg>
