<svg width="20" height="20" viewBox="0 0 20 20" fill="none" xmlns="http://www.w3.org/2000/svg">
<mask id="mask0_78_400" style="mask-type:alpha" maskUnits="userSpaceOnUse" x="0" y="0" width="20" height="20">
<rect width="20" height="20" fill="#D9D9D9"/>
</mask>
<g mask="url(#mask0_78_400)">
<path d="M9.99207 17.0833V15.8333H15.5769C15.641 15.8333 15.6998 15.8066 15.7531 15.7531C15.8066 15.6998 15.8333 15.641 15.8333 15.5769V4.42311C15.8333 4.35895 15.8066 4.3002 15.7531 4.24686C15.6998 4.19339 15.641 4.16666 15.5769 4.16666H9.99207V2.91666H15.5769C15.9978 2.91666 16.3542 3.06249 16.6458 3.35416C16.9375 3.64582 17.0833 4.00214 17.0833 4.42311V15.5769C17.0833 15.9978 16.9375 16.3542 16.6458 16.6458C16.3542 16.9375 15.9978 17.0833 15.5769 17.0833H9.99207ZM8.86228 13.5577L7.99687 12.6537L10.0256 10.625H2.91666V9.37499H10.0256L7.99687 7.34624L8.86228 6.44228L12.4198 9.99999L8.86228 13.5577Z" fill="white"/>
</g>
</svg>
