<svg width="20" height="20" viewBox="0 0 20 20" fill="none" xmlns="http://www.w3.org/2000/svg">
<mask id="mask0_6_55" style="mask-type:alpha" maskUnits="userSpaceOnUse" x="0" y="0" width="20" height="20">
<rect width="20" height="20" fill="#D9D9D9"/>
</mask>
<g mask="url(#mask0_6_55)">
<path d="M4.42311 17.0833C4.00214 17.0833 3.64582 16.9375 3.35416 16.6458C3.06249 16.3542 2.91666 15.9978 2.91666 15.5769V4.42311C2.91666 4.00214 3.06249 3.64582 3.35416 3.35416C3.64582 3.06249 4.00214 2.91666 4.42311 2.91666H10.0079V4.16666H4.42311C4.35895 4.16666 4.3002 4.19339 4.24687 4.24686C4.19339 4.3002 4.16666 4.35895 4.16666 4.42311V15.5769C4.16666 15.641 4.19339 15.6998 4.24687 15.7531C4.3002 15.8066 4.35895 15.8333 4.42311 15.8333H10.0079V17.0833H4.42311ZM13.5256 13.5577L12.6602 12.6537L14.6892 10.625H7.5802V9.37499H14.6892L12.6602 7.34624L13.5256 6.44228L17.0833 9.99999L13.5256 13.5577Z" fill="white"/>
</g>
</svg>
