<svg width="20" height="20" viewBox="0 0 20 20" fill="none" xmlns="http://www.w3.org/2000/svg">
<path d="M8.33335 12.5L12.6584 9.99999L8.33335 7.49999V12.5ZM17.9667 5.97499C18.075 6.36666 18.15 6.89166 18.2 7.55832C18.2584 8.22499 18.2834 8.79999 18.2834 9.29999L18.3334 9.99999C18.3334 11.825 18.2 13.1667 17.9667 14.025C17.7584 14.775 17.275 15.2583 16.525 15.4667C16.1334 15.575 15.4167 15.65 14.3167 15.7C13.2334 15.7583 12.2417 15.7833 11.325 15.7833L10 15.8333C6.50835 15.8333 4.33335 15.7 3.47502 15.4667C2.72502 15.2583 2.24169 14.775 2.03335 14.025C1.92502 13.6333 1.85002 13.1083 1.80002 12.4417C1.74169 11.775 1.71669 11.2 1.71669 10.7L1.66669 9.99999C1.66669 8.17499 1.80002 6.83332 2.03335 5.97499C2.24169 5.22499 2.72502 4.74166 3.47502 4.53332C3.86669 4.42499 4.58335 4.34999 5.68335 4.29999C6.76669 4.24166 7.75835 4.21666 8.67502 4.21666L10 4.16666C13.4917 4.16666 15.6667 4.29999 16.525 4.53332C17.275 4.74166 17.7584 5.22499 17.9667 5.97499Z" fill="#B0261A"/>
</svg>
