<svg width="20" height="20" viewBox="0 0 20 20" fill="none" xmlns="http://www.w3.org/2000/svg">
<mask id="mask0_242_2457" style="mask-type:alpha" maskUnits="userSpaceOnUse" x="0" y="0" width="20" height="20">
<rect width="20" height="20" fill="#D9D9D9"/>
</mask>
<g mask="url(#mask0_242_2457)">
<path d="M14.4567 16.5737L16.9006 14.0337L16.3477 13.5225L14.43 15.5048L13.6314 14.6923L13.0994 15.2162L14.4567 16.5737ZM6.32062 7.8877H13.6794V6.80457H6.32062V7.8877ZM14.9952 18.6314C13.9995 18.6314 13.1542 18.2824 12.4592 17.5842C11.7642 16.8861 11.4167 16.0392 11.4167 15.0433C11.4167 14.0476 11.7658 13.2023 12.4639 12.5073C13.162 11.8123 14.0089 11.4648 15.0048 11.4648C16.0005 11.4648 16.8458 11.8138 17.5408 12.5119C18.2358 13.2101 18.5833 14.057 18.5833 15.0527C18.5833 16.0485 18.2342 16.8939 17.536 17.5889C16.838 18.2839 15.991 18.6314 14.9952 18.6314ZM3.41666 17.4871V4.75645C3.41666 4.38673 3.54749 4.07096 3.80916 3.80916C4.07096 3.54749 4.38673 3.41666 4.75645 3.41666H15.2435C15.6133 3.41666 15.929 3.54749 16.1908 3.80916C16.4525 4.07096 16.5833 4.38673 16.5833 4.75645V9.8477C16.4112 9.78784 16.236 9.74221 16.0577 9.71082C15.8794 9.6793 15.6935 9.65499 15.5 9.63791V4.75645C15.5 4.69228 15.4733 4.63353 15.4198 4.5802C15.3664 4.52673 15.3077 4.49999 15.2435 4.49999H4.75645C4.69228 4.49999 4.63353 4.52673 4.5802 4.5802C4.52673 4.63353 4.49999 4.69228 4.49999 4.75645V15.5H9.61228C9.63784 15.8151 9.69256 16.1244 9.77645 16.4279C9.86034 16.7312 9.97277 17.0192 10.1137 17.2917L9.91186 17.431L8.89749 16.7739L7.79478 17.4871L6.69228 16.7739L5.58978 17.4871L4.48728 16.7739L3.41666 17.4871ZM6.32062 13.1954H9.85582C9.91985 12.9871 10.0016 12.7975 10.101 12.6267C10.2003 12.4557 10.3103 12.2842 10.431 12.1123H6.32062V13.1954ZM6.32062 10.5417H11.9087C12.1417 10.3996 12.3689 10.2701 12.5906 10.1531C12.8123 10.036 13.0497 9.92249 13.3029 9.81249V9.45832H6.32062V10.5417Z" fill="#B0261A"/>
</g>
</svg>
