<svg width="20" height="20" viewBox="0 0 20 20" fill="none" xmlns="http://www.w3.org/2000/svg">
<mask id="mask0_405_2249" style="mask-type:alpha" maskUnits="userSpaceOnUse" x="0" y="0" width="20" height="20">
<rect width="20" height="20" fill="#D9D9D9"/>
</mask>
<g mask="url(#mask0_405_2249)">
<path d="M7.35585 10.3686H8.09294V8.70189H9.02252C9.23183 8.70189 9.40703 8.6314 9.54815 8.49043C9.68912 8.34932 9.7596 8.17411 9.7596 7.9648V7.03522C9.7596 6.82591 9.68912 6.65071 9.54815 6.50959C9.40703 6.36862 9.23183 6.29814 9.02252 6.29814H7.35585V10.3686ZM8.09294 7.9648V7.03522H9.02252V7.9648H8.09294ZM10.609 10.3686H12.2436C12.453 10.3686 12.6282 10.2981 12.7692 10.1571C12.9103 10.016 12.9809 9.84077 12.9809 9.63147V7.03522C12.9809 6.82591 12.9103 6.65071 12.7692 6.50959C12.6282 6.36862 12.453 6.29814 12.2436 6.29814H10.609V10.3686ZM11.3461 9.63147V7.03522H12.2436V9.63147H11.3461ZM13.9102 10.3686H14.6475V8.70189H15.6411V7.9648H14.6475V7.03522H15.6411V6.29814H13.9102V10.3686ZM6.71481 14.5833C6.29384 14.5833 5.93752 14.4375 5.64585 14.1458C5.35419 13.8542 5.20835 13.4979 5.20835 13.0769V3.5898C5.20835 3.16883 5.35419 2.81251 5.64585 2.52084C5.93752 2.22918 6.29384 2.08334 6.71481 2.08334H16.2019C16.6229 2.08334 16.9792 2.22918 17.2709 2.52084C17.5625 2.81251 17.7084 3.16883 17.7084 3.5898V13.0769C17.7084 13.4979 17.5625 13.8542 17.2709 14.1458C16.9792 14.4375 16.6229 14.5833 16.2019 14.5833H6.71481ZM6.71481 13.3333H16.2019C16.2661 13.3333 16.3248 13.3066 16.3781 13.2531C16.4316 13.1998 16.4584 13.1411 16.4584 13.0769V3.5898C16.4584 3.52564 16.4316 3.46688 16.3781 3.41355C16.3248 3.36008 16.2661 3.33334 16.2019 3.33334H6.71481C6.65065 3.33334 6.5919 3.36008 6.53856 3.41355C6.48509 3.46688 6.45835 3.52564 6.45835 3.5898V13.0769C6.45835 13.1411 6.48509 13.1998 6.53856 13.2531C6.5919 13.3066 6.65065 13.3333 6.71481 13.3333ZM3.79815 17.5C3.37717 17.5 3.02085 17.3542 2.72919 17.0625C2.43752 16.7708 2.29169 16.4145 2.29169 15.9936V5.25647H3.54169V15.9936C3.54169 16.0577 3.56842 16.1165 3.6219 16.1698C3.67523 16.2233 3.73398 16.25 3.79815 16.25H14.5352V17.5H3.79815Z" fill="white"/>
</g>
</svg>
