<svg width="20" height="20" viewBox="0 0 20 20" fill="none" xmlns="http://www.w3.org/2000/svg">
<mask id="mask0_106_1174" style="mask-type:alpha" maskUnits="userSpaceOnUse" x="0" y="0" width="20" height="20">
<rect width="20" height="20" fill="#D9D9D9"/>
</mask>
<g mask="url(#mask0_106_1174)">
<path d="M16.2852 17.1475L11.0513 11.9134C10.6346 12.2574 10.1554 12.5266 9.61375 12.7211C9.07209 12.9155 8.51174 13.0127 7.93271 13.0127C6.50841 13.0127 5.30299 12.5196 4.31646 11.5334C3.32993 10.5471 2.83667 9.34197 2.83667 7.91794C2.83667 6.49405 3.32979 5.2885 4.31604 4.30127C5.30229 3.31419 6.50743 2.82065 7.93146 2.82065C9.35535 2.82065 10.5609 3.31391 11.5481 4.30044C12.5352 5.28697 13.0288 6.49238 13.0288 7.91669C13.0288 8.51183 12.9289 9.08023 12.7292 9.6219C12.5293 10.1636 12.2627 10.6347 11.9294 11.0352L17.1633 16.2692L16.2852 17.1475ZM7.93271 11.7629C9.00646 11.7629 9.91591 11.3903 10.661 10.645C11.4063 9.89988 11.779 8.99044 11.779 7.91669C11.779 6.84294 11.4063 5.93349 10.661 5.18836C9.91591 4.44308 9.00646 4.07044 7.93271 4.07044C6.85896 4.07044 5.94952 4.44308 5.20438 5.18836C4.4591 5.93349 4.08646 6.84294 4.08646 7.91669C4.08646 8.99044 4.4591 9.89988 5.20438 10.645C5.94952 11.3903 6.85896 11.7629 7.93271 11.7629Z" fill="white" stroke="white" stroke-width="0.25"/>
</g>
</svg>
