<svg width="20" height="20" viewBox="0 0 20 20" fill="none" xmlns="http://www.w3.org/2000/svg">
<mask id="mask0_6_67" style="mask-type:alpha" maskUnits="userSpaceOnUse" x="0" y="0" width="20" height="20">
<rect width="20" height="20" fill="#D9D9D9"/>
</mask>
<g mask="url(#mask0_6_67)">
<path d="M8.7644 17.5833L8.32211 15.3364C7.96002 15.2062 7.59225 15.039 7.21877 14.835C6.84544 14.6308 6.51079 14.3963 6.21482 14.1314L4.05127 14.8542L2.81586 12.7083L4.51607 11.2131C4.48301 11.0198 4.45551 10.8224 4.43357 10.621C4.41162 10.4196 4.40065 10.2153 4.40065 10.0079C4.40065 9.8061 4.41162 9.60582 4.43357 9.40707C4.45551 9.20832 4.48301 9.00159 4.51607 8.78687L2.81586 7.29166L4.05127 5.16187L6.20669 5.87666C6.51877 5.60638 6.85482 5.37055 7.21482 5.16916C7.57482 4.96777 7.94127 4.79923 8.31419 4.66353L8.7644 2.41666H11.2356L11.6779 4.67145C12.0668 4.81784 12.4319 4.98638 12.7731 5.17707C13.1145 5.36777 13.4439 5.60096 13.7613 5.87666L15.9488 5.16187L17.1842 7.29166L15.4519 8.81082C15.4956 9.01485 15.5259 9.2136 15.5425 9.40707C15.5591 9.60041 15.5673 9.79805 15.5673 9.99999C15.5673 10.1965 15.5577 10.3915 15.5384 10.585C15.5192 10.7783 15.4931 10.9851 15.46 11.2052L17.1763 12.7083L15.9406 14.8542L13.7613 14.1233C13.4439 14.399 13.1119 14.6349 12.7652 14.8308C12.4186 15.0269 12.0561 15.1928 11.6779 15.3285L11.2356 17.5833H8.7644ZM9.62502 16.5H10.3671L10.7709 14.4135C11.2934 14.3163 11.7757 14.1411 12.2179 13.8879C12.6603 13.6346 13.0588 13.2985 13.4136 12.8798L15.4215 13.5625L15.8046 12.9375L14.2052 11.5337C14.2886 11.2762 14.3531 11.023 14.399 10.7739C14.445 10.5251 14.4679 10.2671 14.4679 9.99999C14.4679 9.72749 14.445 9.4695 14.399 9.22603C14.3531 8.98242 14.2886 8.7345 14.2052 8.48228L15.8204 7.06249L15.4375 6.43749L13.4054 7.11207C13.0988 6.73068 12.7056 6.40138 12.2261 6.12416C11.7463 5.84693 11.2586 5.6677 10.7629 5.58645L10.375 3.49999H9.61711L9.23711 5.57853C8.71475 5.66506 8.22843 5.83624 7.77815 6.09207C7.32773 6.34805 6.92516 6.68805 6.57044 7.11207L4.56252 6.43749L4.17961 7.06249L5.77086 8.46624C5.68752 8.6918 5.62155 8.93568 5.57294 9.19791C5.52433 9.46013 5.50002 9.73013 5.50002 10.0079C5.50002 10.2804 5.52433 10.5451 5.57294 10.8021C5.62155 11.059 5.68488 11.3029 5.76294 11.5337L4.17961 12.9375L4.56252 13.5625L6.56252 12.8958C6.90655 13.3039 7.3037 13.6359 7.75398 13.8919C8.2044 14.1477 8.69613 14.3242 9.22919 14.4214L9.62502 16.5ZM9.96794 12.5833C10.6891 12.5833 11.2999 12.333 11.8004 11.8325C12.301 11.3319 12.5513 10.7211 12.5513 9.99999C12.5513 9.27888 12.301 8.66805 11.8004 8.16749C11.2999 7.66693 10.6891 7.41666 9.96794 7.41666C9.25211 7.41666 8.64259 7.66693 8.1394 8.16749C7.6362 8.66805 7.38461 9.27888 7.38461 9.99999C7.38461 10.7211 7.6362 11.3319 8.1394 11.8325C8.64259 12.333 9.25211 12.5833 9.96794 12.5833Z" fill="white"/>
</g>
</svg>
