<svg width="20" height="20" viewBox="0 0 20 20" fill="none" xmlns="http://www.w3.org/2000/svg">
<mask id="mask0_416_2133" style="mask-type:alpha" maskUnits="userSpaceOnUse" x="0" y="0" width="20" height="20">
<rect width="20" height="20" fill="#D9D9D9"/>
</mask>
<g mask="url(#mask0_416_2133)">
<path d="M5.22436 13.9583H9.77562V12.7083H5.22436V13.9583ZM7.72436 10.625H12.2756V9.37499H7.72436V10.625ZM10.2244 7.29166H14.7756V6.04166H10.2244V7.29166ZM4.42311 17.0833C4.00214 17.0833 3.64582 16.9375 3.35416 16.6458C3.06249 16.3542 2.91666 15.9978 2.91666 15.5769V4.42311C2.91666 4.00214 3.06249 3.64582 3.35416 3.35416C3.64582 3.06249 4.00214 2.91666 4.42311 2.91666H15.5769C15.9978 2.91666 16.3542 3.06249 16.6458 3.35416C16.9375 3.64582 17.0833 4.00214 17.0833 4.42311V15.5769C17.0833 15.9978 16.9375 16.3542 16.6458 16.6458C16.3542 16.9375 15.9978 17.0833 15.5769 17.0833H4.42311ZM4.42311 15.8333H15.5769C15.641 15.8333 15.6998 15.8066 15.7531 15.7531C15.8066 15.6998 15.8333 15.641 15.8333 15.5769V4.42311C15.8333 4.35895 15.8066 4.3002 15.7531 4.24686C15.6998 4.19339 15.641 4.16666 15.5769 4.16666H4.42311C4.35895 4.16666 4.3002 4.19339 4.24687 4.24686C4.19339 4.3002 4.16666 4.35895 4.16666 4.42311V15.5769C4.16666 15.641 4.19339 15.6998 4.24687 15.7531C4.3002 15.8066 4.35895 15.8333 4.42311 15.8333Z" fill="white"/>
</g>
</svg>
